<?xml version="1.0" encoding="utf-8"?>
<!DOCTYPE svg PUBLIC "-//W3C//DTD SVG 1.0//EN" "http://www.w3.org/TR/2001/REC-SVG-20010904/DTD/svg10.dtd">
<svg version="1.0" xmlns="http://www.w3.org/2000/svg" width="666px" height="700px" viewBox="0 0 666 700" preserveAspectRatio="xMidYMid meet">
 <g fill="#0072c3">
  <path d="M332.2 637.3 c-1 -1 -2.4 -1.9 -3 -2 -2.2 -0.5 -48.4 -31.6 -48.9 -33 -0.3 -0.7 -1.1 -1.3 -1.9 -1.3 -1.5 0 -22.6 -15.7 -23.2 -17.2 -0.2 -0.4 -0.9 -0.8 -1.5 -0.8 -0.7 0 -2.3 -1.1 -3.7 -2.5 -1.4 -1.3 -7.2 -6.4 -13 -11.3 -12.1 -10.2 -28.7 -27.2 -37.8 -38.5 -7.4 -9.2 -18.2 -24.9 -18.2 -26.6 0 -0.6 -0.4 -1.1 -0.8 -1.1 -2.5 0 -19.9 -41.7 -18.8 -44.7 0.3 -0.7 0.2 -1.3 -0.2 -1.3 -1.2 0 -5.6 -22.5 -4.9 -24.9 0.3 -1.2 0 -2.1 -0.5 -2.1 -0.7 0 -0.9 -2.6 -0.5 -7.7 0.5 -5.2 0.4 -7.3 -0.3 -6.3 -0.6 1 -1 -10.8 -1 -34.5 0 -26.8 0.3 -36.4 1.2 -37.3 0.9 -0.9 0.9 -1.2 0 -1.2 -0.7 0 -1.2 -0.7 -1.2 -1.5 0 -2.2 13.7 -5.5 20.3 -4.9 3.2 0.3 3.7 0.2 2.2 -0.5 -1.1 -0.5 -1.7 -1 -1.2 -1 0.4 -0.1 5 -1 10.3 -2.2 5.3 -1.1 11.8 -2.4 14.4 -2.8 l4.8 -0.8 0.5 44.1 c0.4 40.3 0.6 44.9 2.5 53.6 1.2 5.2 1.9 10.4 1.6 11.6 -0.3 1.2 -0.1 2.5 0.4 2.8 0.6 0.4 0.8 -0.3 0.6 -1.6 -0.3 -1.3 1 1.8 2.9 6.7 3.9 10.4 9.7 22.1 13.9 28.3 1.6 2.3 2.6 4.7 2.2 5.4 -0.4 0.6 -0.3 0.8 0.3 0.5 0.6 -0.4 1.9 0.6 2.9 2.1 5.7 8.8 22.5 26.5 35.6 37.6 3.2 2.6 5.6 5.2 5.3 5.6 -0.3 0.4 0.3 0.7 1.3 0.6 0.9 0 1.6 0.5 1.5 1.1 -0.2 0.7 0.1 1.2 0.5 1 1.5 -0.4 19.2 12.5 18.5 13.6 -0.3 0.6 -0.1 0.7 0.5 0.3 1.4 -0.8 13.8 7.2 13.4 8.7 -0.2 0.7 0 0.9 0.3 0.5 0.9 -0.9 2.5 -0.1 15.2 7.8 5.6 3.5 10.5 6.4 10.9 6.4 0.4 0 2.9 -1.3 5.5 -3 2.7 -1.6 4.9 -2.7 4.9 -2.3 0 0.4 0.6 -0.1 1.3 -1.2 0.9 -1.2 1.9 -1.5 2.8 -1 0.8 0.5 1 0.4 0.6 0 -1 -1.1 9.2 -7.6 10.7 -6.8 0.6 0.3 0.8 0.3 0.4 -0.1 -0.4 -0.5 4.8 -4.4 11.5 -8.8 6.7 -4.4 14.1 -9.6 16.5 -11.5 2.3 -1.9 4.2 -3.1 4.2 -2.7 0 0.4 0.6 0.1 1.3 -0.8 2.4 -3 18.5 -16.7 19.1 -16.2 0.3 0.2 0.4 0.1 0.1 -0.3 -0.3 -0.3 3 -4.3 7.2 -8.7 10.6 -11 11.9 -12.6 19.6 -24.2 10.3 -15.5 17.8 -33 21.6 -50.5 2.2 -9.8 3.1 -27.6 3.1 -62.5 l0.1 -36.4 2.2 0.5 c1.2 0.3 7.6 1.7 14.2 3.1 6.6 1.4 12.2 3 12.6 3.6 0.4 0.5 1.5 0.8 2.5 0.4 1.1 -0.3 5.5 0.3 9.9 1.2 l8 1.7 0 42.5 c-0.1 28.1 -0.5 45.2 -1.3 50.5 -2.1 13.5 -5.4 27.5 -6.5 26.8 -0.6 -0.4 -0.7 -0.1 -0.3 0.6 1.1 1.8 -0.2 6.3 -1.6 5.5 -0.7 -0.4 -0.8 -0.3 -0.4 0.5 0.9 1.5 -4.3 16.3 -5.5 15.5 -0.5 -0.3 -0.6 0.1 -0.3 0.9 0.6 1.8 -7.6 17.9 -14.9 29 -10.3 15.7 -32.3 41.7 -35.4 41.7 -0.8 0 -1.2 0.4 -0.8 0.9 0.9 1.6 -26.2 25.1 -44.8 38.9 -12 8.9 -26 18.1 -26.8 17.6 -0.5 -0.3 -0.9 0.1 -0.9 0.8 0 1.1 -19.1 14.5 -22.4 15.7 -0.6 0.2 -1.3 0.7 -1.6 1.1 -0.9 1.1 -9.7 6.9 -11 7.2 -0.7 0.2 -2.2 1.1 -3.2 2.1 -1 0.9 -2.2 1.7 -2.8 1.7 -0.5 0 -1.8 -0.8 -2.8 -1.7z"/>
  <path d="M55.5 371.7 c-1 -0.8 -1.5 -1.9 -1.1 -2.5 0.4 -0.8 0.2 -1 -0.8 -0.6 -1.9 0.7 -3.6 -2.5 -3.6 -6.8 0 -5.1 9.3 -45.7 10.4 -45.1 0.5 0.4 0.6 0.1 0.2 -0.6 -0.6 -1 3.5 -22.2 5.1 -26.1 0.3 -0.8 0.8 -3.2 1 -5.3 0.4 -3.3 -0.1 -4.4 -3.6 -8.3 -8 -9.1 -7.5 -21.5 1.2 -28.9 3.8 -3.3 4 -3.7 3.8 -8.6 -0.1 -2.8 0.3 -5.7 0.9 -6.4 0.8 -0.9 0.8 -1.5 0 -2 -0.7 -0.4 -1 -7.2 -1 -20.2 0.1 -17.7 0 -19.6 -1.7 -20.9 -1 -0.7 -2.4 -1.4 -3 -1.4 -0.7 0 -1.3 -0.4 -1.3 -0.8 0 -0.5 -0.6 -0.9 -1.4 -0.9 -3 0 -31.5 -13.3 -33.4 -15.5 -2.3 -2.9 -2.5 -8 -0.3 -11.5 2 -3.3 9.4 -7.8 11 -6.8 0.5 0.3 1.1 0.1 1.3 -0.4 0.1 -0.5 8.6 -4.6 18.8 -9.1 10.2 -4.5 22.4 -9.9 27.3 -12 4.9 -2.2 8.7 -3.4 8.7 -2.8 0 0.7 0.6 0.4 1.3 -0.5 1.5 -2 21.6 -10.9 22.8 -10.1 0.5 0.3 0.9 0.1 0.9 -0.4 0 -1.3 10 -5.3 11.3 -4.5 0.5 0.3 0.7 0.1 0.3 -0.5 -0.8 -1.3 2.9 -2.6 4.5 -1.6 0.7 0.4 0.9 0.3 0.6 -0.3 -0.7 -1.1 9.7 -5.7 13.3 -5.8 1.4 0 2.4 -0.5 2.3 -1 -0.2 -1.5 33.2 -15.6 35.4 -14.9 1.3 0.4 1.4 0.3 0.5 -0.4 -1.1 -0.7 -1 -1 0.3 -1.6 0.9 -0.3 2.1 -0.4 2.6 0 0.5 0.3 0.9 0.1 0.9 -0.3 0 -0.8 11 -5.9 14 -6.5 0.8 -0.2 1.7 -0.6 2 -0.9 1.3 -1.6 35.1 -15 36.1 -14.3 0.7 0.4 0.9 0.3 0.6 -0.3 -0.4 -0.6 0 -1.4 0.9 -1.7 0.8 -0.3 1.2 -0.2 0.9 0.4 -0.8 1.3 0.5 1.3 2.5 0 1.3 -0.9 1.3 -1 0 -1 -0.8 0 1.9 -1.5 6 -3.4 4.1 -1.8 7.7 -2.9 7.9 -2.4 0.1 0.5 0.8 0.3 1.5 -0.5 0.6 -0.8 4.5 -2.9 8.6 -4.7 4.1 -1.7 11.2 -4.7 15.8 -6.7 4.5 -2 8.9 -3.6 9.7 -3.6 0.8 0 1.5 -0.5 1.5 -1 0 -0.5 0.9 -0.7 2 -0.4 1.1 0.3 1.8 0.2 1.5 -0.3 -0.2 -0.4 5.3 -3.1 12.3 -6.1 11.3 -4.7 13.5 -5.3 20.2 -5.3 7.4 -0.1 14.5 1.8 13.4 3.5 -0.3 0.5 0.1 0.6 0.9 0.3 0.8 -0.3 6.5 1.7 12.8 4.4 6.3 2.7 18.8 8 27.9 11.7 9.1 3.8 17 7.4 17.6 8.2 0.6 0.7 2 1.3 3.1 1.3 2.8 0 11.6 4 12.6 5.7 0.5 0.7 1.3 1.1 1.8 0.8 1.5 -1 16.8 5.6 16.2 7.1 -0.2 0.6 0 1.5 0.6 1.9 0.7 0.3 0.8 0 0.5 -0.9 -0.3 -0.9 -0.4 -1.6 0 -1.6 1 0 10.4 3.9 17.8 7.4 4 1.8 9.4 4.1 12 5.1 2.6 1 4.5 2.1 4.2 2.6 -0.3 0.5 0.2 0.6 1 0.3 1.1 -0.4 1.6 0 1.6 1 0 1.2 0.6 1.5 2.5 1 1.6 -0.4 2.5 -0.2 2.5 0.6 0 0.6 0.3 0.9 0.8 0.6 1.2 -0.7 11.3 3.9 10.5 4.9 -0.5 0.4 -0.3 0.5 0.4 0.1 1.7 -0.9 11.4 3.4 10.6 4.7 -0.3 0.6 -0.1 0.7 0.6 0.3 1.6 -1 11.8 3.1 12.5 5 0.3 0.9 1.1 1.2 1.6 0.9 1.3 -0.8 14 4.4 14 5.7 0 0.5 0.3 0.7 0.8 0.4 1.2 -0.7 16.3 5.9 15.5 6.9 -0.4 0.4 -0.3 0.5 0.4 0.1 1.5 -0.8 16.6 5.8 15.6 6.9 -0.5 0.4 -0.3 0.5 0.4 0.1 1.2 -0.7 6.3 1.2 7.5 2.8 0.3 0.5 1.4 1.1 2.4 1.2 4.5 0.7 6.4 1.5 5.8 2.6 -0.4 0.6 -0.3 0.8 0.3 0.5 1.4 -0.9 7.4 1.3 6.7 2.4 -0.3 0.5 0.3 0.6 1.2 0.2 1.2 -0.4 1.5 -0.3 1 0.5 -0.5 0.8 -0.1 1 1 0.5 1.2 -0.4 1.5 -0.3 1 0.5 -0.4 0.7 -0.2 1 0.6 0.7 1.7 -0.7 33.9 13.1 35.4 15.1 0.7 0.8 1.6 1.4 2 1.2 2 -0.5 7.4 1.4 6.8 2.4 -0.4 0.7 -0.2 0.8 0.5 0.4 1.6 -1 4.3 1.3 3.7 3.1 -0.3 0.7 0.1 1.3 0.8 1.3 2.3 0 2.8 4.7 1 8.5 -1.3 2.8 -3.2 4.2 -9.3 7.1 -8.2 4 -23 10.4 -24.6 10.8 -0.5 0.2 -4.5 2 -8.9 4 -4.7 2.2 -8.6 3.4 -9.7 3.1 -1.2 -0.4 -1.9 -0.2 -1.9 0.7 0 0.8 -2.6 2.5 -5.7 3.8 -3.2 1.2 -7.6 3.1 -9.8 4.1 -17.1 7.5 -21.7 9 -23.3 7.7 -0.9 -0.7 -1.3 -0.8 -1 -0.3 1.1 1.8 -0.4 2.9 -8 6.3 l-7.4 3.3 -8.8 -4.9 c-4.8 -2.7 -11.3 -5.9 -14.4 -7.2 -3.1 -1.3 -5.6 -2.7 -5.6 -3.2 0 -0.4 -0.4 -0.7 -0.8 -0.5 -1.2 0.3 -11.2 -4.5 -11.2 -5.5 0 -0.5 -0.4 -0.6 -1 -0.3 -1.4 0.8 -5 -1.3 -4.6 -2.8 0.1 -0.6 0.1 -0.9 -0.1 -0.4 -0.6 1 -3 0.9 -5.1 -0.3 -3.1 -1.7 -35.9 -15 -37.1 -15 -0.7 0 -1 -0.4 -0.7 -0.8 0.2 -0.4 -0.4 -0.8 -1.4 -0.9 -2.9 -0.2 -14 -4.5 -14 -5.3 0 -0.4 -0.6 -0.8 -1.2 -0.7 -3.5 0.1 -4.9 -0.4 -4.2 -1.5 0.4 -0.6 0.3 -0.8 -0.3 -0.5 -1.2 0.7 -8.3 -1.1 -10.1 -2.6 -0.8 -0.6 -2.3 -1.2 -3.5 -1.2 -1.1 -0.1 -2.3 -0.7 -2.5 -1.4 -0.2 -0.6 -0.8 -0.9 -1.3 -0.6 -1 0.7 -14.9 -3.3 -16.4 -4.6 -0.5 -0.5 -1.9 -0.9 -3.2 -0.9 -1.3 0 -2.3 -0.4 -2.3 -0.9 0 -0.5 -0.6 -0.8 -1.2 -0.7 -1.5 0.1 -31 -8.6 -31.8 -9.4 -0.3 -0.3 -1.4 -0.6 -2.5 -0.8 -1.1 -0.1 -5 -1 -8.7 -1.8 -7.7 -1.8 -10.5 -1.4 -32.6 5.2 -6.2 1.9 -12.2 3.6 -13.5 3.8 -1.2 0.3 -2.3 0.5 -2.4 0.7 -0.2 0.1 -1.1 0.2 -2.1 0.3 -1.1 0 -2.5 0.6 -3.3 1.2 -1.1 0.9 -18.9 6.9 -23.4 7.9 -0.5 0.1 -1.8 0.5 -2.7 0.9 -0.9 0.4 -2.3 0.4 -3 0 -0.7 -0.4 -1 -0.3 -0.5 0.1 0.8 1 -17.2 7.7 -18.5 6.9 -0.4 -0.3 -0.8 -0.1 -0.8 0.4 0 1 -11.2 5.2 -13.8 5.2 -0.7 0 -2 0.7 -2.9 1.6 -0.9 0.8 -2.1 1.3 -2.9 1 -0.7 -0.3 -1.4 -0.2 -1.6 0.2 -0.6 1.4 -23.8 10.3 -24.9 9.6 -0.7 -0.4 -0.9 -0.3 -0.6 0.3 0.4 0.6 -0.8 1.6 -2.6 2.3 -4.5 1.8 -14.4 6.4 -26.2 12.1 -5.6 2.7 -10.6 4.9 -11.2 4.9 -0.6 0 -1.3 0.4 -1.5 0.8 -0.1 0.4 -3.7 2.6 -7.8 4.9 -7.2 3.8 -7.8 3.9 -11.5 2.8 -2.2 -0.6 -6 -2.2 -8.5 -3.5 -2.5 -1.3 -4.9 -2.3 -5.3 -2.2 -0.4 0.1 -1 -0.5 -1.3 -1.3 -0.3 -0.8 -1 -1.2 -1.5 -1 -1 0.7 -10.1 -3.3 -11.1 -4.9 -0.4 -0.6 -0.8 -0.8 -0.8 -0.4 0 0.4 -2.4 -0.4 -5.2 -1.7 l-5.3 -2.5 -0.3 22 -0.2 22 3.6 3.3 c4.5 3.9 7.3 9.8 7.4 15.3 0 5 -4 13.3 -7.8 16.1 l-2.9 2.1 4.4 19.4 c2.4 10.6 5 22.2 5.8 25.8 0.8 3.5 1.2 7.6 0.9 9 -0.4 1.7 -0.3 2.1 0.4 1.2 0.7 -1 1.1 -0.5 1.6 2.1 0.3 1.9 0.5 4.1 0.3 4.8 -0.2 0.8 -0.1 1 0.1 0.4 0.8 -1.4 4.1 14.2 4.1 19 0.1 4.2 -1.9 7.5 -5.6 9.4 -3.4 1.7 -46.4 1.5 -48.8 -0.2z"/>
  <path d="M336 340.1 c0 -0.6 -0.7 -0.8 -1.5 -0.5 -0.8 0.4 -1.5 0.1 -1.5 -0.5 0 -0.6 -0.5 -1.1 -1.1 -1.1 -1.7 0 -13.9 -7.7 -13.2 -8.4 0.3 -0.3 -0.2 -0.6 -1.2 -0.6 -1.9 0 -12.8 -5.9 -13.3 -7.2 -0.2 -0.4 -1 -0.8 -1.9 -0.8 -0.8 0 -4.7 -1.5 -8.6 -3.4 -6.1 -2.9 -31.1 -11.7 -34.2 -12.1 -3.8 -0.4 -11.2 -1.9 -12 -2.3 -2 -1.2 -8.7 -1.6 -30 -1.5 -21.7 0.1 -32.7 1.3 -45.2 5.2 -2.3 0.7 -3.3 0.6 -3.3 -0.1 0 -0.6 -0.8 -0.4 -1.7 0.4 -1.7 1.5 -8.3 3.8 -11 3.8 -0.8 0 -1.1 -8.8 -1.1 -33.6 l-0.1 -33.5 4.7 -3 c2.6 -1.6 5.3 -2.7 6 -2.4 0.7 0.2 1 0 0.7 -0.5 -0.3 -0.5 5.8 -4.2 13.7 -8.1 16.6 -8.3 29.8 -14.1 29.8 -13.1 0 0.4 0.4 0.2 0.8 -0.4 0.7 -1 16.8 -7.6 35.1 -14.4 4.7 -1.7 9.1 -2.8 9.8 -2.6 0.8 0.3 1.2 0.2 0.9 -0.3 -0.6 -0.9 29 -10.8 56.4 -19 20.5 -6.1 23.5 -6.8 22.5 -5 -0.6 0.9 -0.3 1.1 0.9 0.6 2.4 -0.9 18.7 3.3 17.9 4.6 -0.3 0.6 -0.1 0.7 0.5 0.3 1.5 -0.9 13.2 2.3 13.2 3.6 0 0.5 0.4 0.6 1 0.3 1.1 -0.7 21.2 5.3 22.1 6.6 0.3 0.5 1.9 1 3.5 1.2 5.6 0.7 22.4 6.8 21.7 8 -0.4 0.7 0 0.8 1.1 0.4 1.9 -0.8 19 4.9 21.1 6.9 0.7 0.7 1.5 1.1 1.7 0.8 0.7 -0.6 16.7 5.7 16.6 6.5 -0.2 1.7 0.3 2.5 1 1.5 0.9 -1.4 19.5 6.3 18.6 7.7 -0.3 0.5 0.1 0.7 0.8 0.4 1.7 -0.6 26.4 12.1 26.1 13.4 -0.2 0.6 0.4 0.8 1.2 0.5 0.8 -0.4 1.5 -0.1 1.5 0.6 0 0.6 0.4 0.9 0.8 0.6 1.2 -0.7 8.4 4.3 7.7 5.5 -0.4 0.5 -0.1 0.9 0.4 0.9 0.8 0 1.1 10.5 1.1 33.1 0 26.1 -0.3 33 -1.2 32.6 -0.7 -0.2 -3.1 -1 -5.3 -1.7 -2.2 -0.7 -4.7 -1.5 -5.5 -1.8 -0.8 -0.3 -2.1 -0.4 -2.7 -0.3 -0.7 0.1 -1.3 -0.3 -1.3 -0.8 0 -0.6 -0.7 -0.8 -1.6 -0.4 -0.9 0.3 -1.9 0.2 -2.3 -0.3 -0.6 -1 -12.4 -3.1 -22.8 -4.1 -2.9 -0.3 -5.3 -0.8 -5.3 -1.2 0 -0.8 -36.2 0.4 -41.5 1.3 -8.7 1.6 -18.2 3.6 -21.8 4.6 -2 0.6 -4.2 0.8 -4.7 0.5 -0.6 -0.3 -1 -0.2 -1 0.3 0 1.1 -6 3.5 -6 2.4 0 -0.4 -0.4 -0.2 -0.8 0.4 -0.4 0.5 -2.9 1.8 -5.7 2.8 -2.7 1 -9.8 4.3 -15.7 7.2 -6 2.9 -10.8 5.1 -10.8 4.8 0 -0.2 -0.8 0.3 -1.7 1.2 -1.4 1.2 -14.9 10 -21 13.8 -0.7 0.4 -1.3 0.3 -1.3 -0.3z"/>
 </g>
 <g fill="#fd9f35">
  <path d="M332.2 637.3 c-1 -1 -2.4 -1.9 -3 -2 -2.2 -0.5 -48.4 -31.6 -48.9 -33 -0.3 -0.7 -1.1 -1.3 -1.9 -1.3 -1.5 0 -22.6 -15.7 -23.2 -17.2 -0.2 -0.4 -0.9 -0.8 -1.5 -0.8 -0.7 0 -2.3 -1.1 -3.7 -2.5 -1.4 -1.3 -7.2 -6.4 -13 -11.3 -12.1 -10.2 -28.7 -27.2 -37.8 -38.5 -7.4 -9.2 -18.2 -24.9 -18.2 -26.6 0 -0.6 -0.4 -1.1 -0.8 -1.1 -2.5 0 -19.9 -41.7 -18.8 -44.7 0.3 -0.7 0.2 -1.3 -0.2 -1.3 -1.2 0 -5.6 -22.5 -4.9 -24.9 0.3 -1.2 0 -2.1 -0.5 -2.1 -0.7 0 -0.9 -2.6 -0.5 -7.7 0.5 -5.2 0.4 -7.3 -0.3 -6.3 -0.6 1 -1 -10.8 -1 -34.6 0 -26.7 0.3 -36.3 1.2 -37.2 0.9 -0.9 0.9 -1.2 0 -1.2 -0.7 0 -1.2 -0.7 -1.2 -1.5 0 -2.2 13.7 -5.5 20.3 -4.9 3.2 0.3 3.7 0.2 2.2 -0.5 -1.1 -0.5 -1.7 -1 -1.2 -1 0.4 -0.1 5 -1 10.3 -2.2 5.3 -1.1 11.8 -2.4 14.4 -2.8 l4.8 -0.8 0.5 44.1 c0.4 40.3 0.6 44.9 2.5 53.6 1.2 5.2 1.9 10.4 1.6 11.6 -0.3 1.2 -0.1 2.5 0.4 2.8 0.6 0.4 0.8 -0.3 0.6 -1.6 -0.3 -1.3 1 1.8 2.9 6.7 3.9 10.4 9.7 22.1 13.9 28.3 1.6 2.3 2.6 4.7 2.2 5.4 -0.4 0.6 -0.3 0.8 0.3 0.5 0.6 -0.4 1.9 0.6 2.9 2.1 5.7 8.8 22.5 26.5 35.6 37.6 3.2 2.6 5.6 5.2 5.3 5.6 -0.3 0.4 0.3 0.7 1.3 0.6 0.9 0 1.6 0.5 1.5 1.1 -0.2 0.7 0.1 1.2 0.5 1 1.5 -0.4 19.2 12.5 18.5 13.6 -0.3 0.6 -0.1 0.7 0.5 0.3 1.4 -0.8 13.8 7.2 13.4 8.7 -0.2 0.7 0 0.9 0.3 0.5 0.9 -0.9 2.5 -0.1 15.2 7.8 5.6 3.5 10.5 6.4 10.9 6.4 0.4 0 2.9 -1.3 5.5 -3 2.7 -1.6 4.9 -2.7 4.9 -2.3 0 0.4 0.6 -0.1 1.3 -1.2 0.9 -1.2 1.9 -1.5 2.8 -1 0.8 0.5 1 0.4 0.6 0 -1 -1.1 9.2 -7.6 10.7 -6.8 0.6 0.3 0.8 0.3 0.4 -0.1 -0.4 -0.5 4.8 -4.4 11.5 -8.8 6.7 -4.4 14.1 -9.6 16.5 -11.5 2.3 -1.9 4.2 -3.1 4.2 -2.7 0 0.4 0.6 0.1 1.3 -0.8 2.4 -3 18.5 -16.7 19.1 -16.2 0.3 0.2 0.4 0.1 0.1 -0.3 -0.3 -0.3 3 -4.3 7.2 -8.7 10.6 -11 11.9 -12.6 19.6 -24.2 10.3 -15.5 17.8 -33 21.6 -50.5 2.2 -9.8 3.1 -27.6 3.1 -62.5 l0.1 -36.4 2.2 0.5 c1.2 0.3 7.6 1.7 14.2 3.1 6.6 1.4 12.2 3 12.6 3.6 0.4 0.5 1.5 0.8 2.5 0.4 1.1 -0.3 5.5 0.3 9.9 1.2 l8 1.7 0 42.5 c-0.1 28.1 -0.5 45.2 -1.3 50.5 -2.1 13.5 -5.4 27.5 -6.5 26.8 -0.6 -0.4 -0.7 -0.1 -0.3 0.6 1.1 1.8 -0.2 6.3 -1.6 5.5 -0.7 -0.4 -0.8 -0.3 -0.4 0.5 0.9 1.5 -4.3 16.3 -5.5 15.5 -0.5 -0.3 -0.6 0.1 -0.3 0.9 0.6 1.8 -7.6 17.9 -14.9 29 -10.3 15.7 -32.3 41.7 -35.4 41.7 -0.8 0 -1.2 0.4 -0.8 0.9 0.9 1.6 -26.2 25.1 -44.8 38.9 -12 8.9 -26 18.1 -26.8 17.6 -0.5 -0.3 -0.9 0.1 -0.9 0.8 0 1.1 -19.1 14.5 -22.4 15.7 -0.6 0.2 -1.3 0.7 -1.6 1.1 -0.9 1.1 -9.7 6.9 -11 7.2 -0.7 0.2 -2.2 1.1 -3.2 2.1 -1 0.9 -2.2 1.7 -2.8 1.7 -0.5 0 -1.8 -0.8 -2.8 -1.7z"/>
 </g>
</svg>